<?xml version="1.0" standalone="no"?>
<!DOCTYPE svg PUBLIC "-//W3C//DTD SVG 20010904//EN"
 "http://www.w3.org/TR/2001/REC-SVG-20010904/DTD/svg10.dtd">
<svg version="1.0" xmlns="http://www.w3.org/2000/svg"
 width="588.000000pt" height="588.000000pt" viewBox="0 0 588.000000 588.000000"
 preserveAspectRatio="xMidYMid meet">
<metadata>
Created by potrace 1.11, written by Peter Selinger 2001-2013
</metadata>
<g transform="translate(0.000000,588.000000) scale(0.100000,-0.100000)"
fill="#000000" stroke="none">
<path d="M3657 4966 c-15 -30 -27 -57 -27 -60 0 -2 -14 -35 -31 -73 -17 -37
-37 -81 -44 -98 -86 -195 -108 -244 -119 -270 -7 -16 -32 -73 -56 -125 -23
-52 -48 -108 -55 -125 -7 -16 -22 -50 -33 -75 -11 -25 -55 -124 -97 -220 -42
-96 -85 -193 -96 -215 -21 -45 -86 -194 -161 -368 -28 -65 -55 -114 -59 -110
-4 4 -24 46 -44 93 -20 47 -47 108 -60 135 -12 28 -37 84 -55 125 -34 79 -40
93 -115 260 -78 173 -81 180 -135 305 -29 66 -66 149 -82 185 -17 36 -50 111
-74 167 -24 56 -48 110 -53 120 -6 10 -24 52 -42 93 -17 41 -44 102 -59 135
-15 33 -29 67 -32 75 -5 14 -85 -143 -103 -202 -4 -13 -18 -43 -30 -68 -13
-25 -38 -79 -55 -120 -18 -41 -42 -97 -55 -125 -12 -27 -37 -84 -55 -125 -17
-41 -40 -93 -50 -115 -10 -22 -37 -83 -60 -135 -23 -52 -50 -113 -60 -135 -11
-22 -69 -155 -131 -295 -61 -140 -127 -288 -145 -328 -19 -41 -34 -76 -34 -78
0 -4 -40 -92 -86 -190 -13 -28 -24 -58 -24 -67 0 -10 -4 -17 -8 -17 -4 0 -14
-17 -21 -37 -7 -21 -26 -65 -41 -98 -44 -94 -210 -474 -210 -481 0 -2 341 -4
759 -4 l758 0 28 62 c15 35 33 77 41 93 27 61 107 241 124 280 10 22 44 99 75
170 32 72 66 150 78 175 11 25 28 65 39 89 10 24 20 42 22 40 2 -2 25 -53 51
-114 26 -60 59 -135 72 -165 48 -106 61 -136 118 -265 31 -71 68 -152 80 -180
13 -27 37 -80 54 -118 l30 -67 795 0 c461 0 796 4 796 9 0 10 -22 63 -65 157
-15 32 -33 73 -40 89 -12 29 -36 84 -146 330 -30 66 -54 122 -54 125 0 3 -10
25 -22 50 -11 25 -47 104 -78 175 -31 72 -67 150 -78 175 -12 25 -22 47 -23
50 -2 10 -45 105 -110 247 -13 28 -24 55 -24 58 0 3 -14 36 -31 73 -17 37 -39
85 -49 107 -9 22 -36 83 -60 135 -23 52 -48 109 -55 125 -15 36 -33 77 -75
170 -17 38 -38 85 -46 104 -8 20 -24 54 -34 76 -10 22 -35 78 -55 125 -43 98
-49 111 -108 242 l-44 98 -26 -54z"/>
<path d="M3860 1453 l0 -52 51 1 c28 0 53 -3 57 -7 4 -3 7 -72 8 -153 0 -81 4
-161 8 -178 11 -47 67 -96 118 -104 49 -7 129 5 138 21 4 5 2 28 -4 50 -10 38
-11 39 -56 39 -25 0 -51 5 -58 12 -9 9 -12 71 -12 218 l0 206 -125 0 -125 -1
0 -52z"/>
<path d="M1670 1444 c-5 -13 -17 -49 -26 -81 -9 -32 -38 -129 -65 -216 -27
-87 -49 -164 -49 -170 0 -8 21 -12 62 -12 61 0 63 1 75 30 6 17 12 40 12 53 1
12 4 22 9 23 4 0 35 2 70 3 48 1 63 -2 66 -14 3 -8 9 -33 15 -55 l10 -40 69 0
c69 0 69 0 62 25 -26 83 -62 206 -65 220 -2 8 -18 58 -34 110 -17 52 -31 102
-31 111 0 30 -26 40 -100 38 -65 -2 -72 -4 -80 -25z m125 -241 c5 -21 2 -23
-40 -23 -40 0 -46 3 -41 18 3 9 10 40 16 67 24 114 19 118 65 -62z"/>
<path d="M2261 1343 c-17 -9 -40 -26 -50 -39 -21 -27 -31 -22 -31 18 0 27 -1
28 -55 28 -53 0 -55 -1 -55 -27 -2 -240 -1 -343 3 -350 3 -5 23 -8 44 -7 21 1
48 3 60 3 22 1 23 4 22 102 l-1 102 34 34 c28 27 42 34 79 35 24 1 51 0 59 -3
10 -3 18 11 28 50 7 29 10 56 7 59 -13 14 -112 10 -144 -5z"/>
<path d="M2585 1346 c-22 -7 -50 -18 -61 -24 l-22 -11 20 -41 c14 -28 25 -39
37 -36 95 28 129 29 157 5 19 -16 13 -20 -33 -26 -129 -15 -193 -60 -193 -134
0 -105 113 -154 216 -94 42 25 44 25 44 5 0 -11 6 -20 13 -21 6 0 31 -2 55 -2
48 -2 44 -18 43 156 0 131 -13 174 -63 210 -33 24 -153 31 -213 13z m147 -236
c-3 -22 -12 -32 -36 -39 -35 -12 -61 -10 -76 5 -17 17 17 52 53 56 17 2 39 4
48 5 11 1 14 -6 11 -27z"/>
<path d="M3183 1341 c-23 -11 -46 -29 -53 -40 -10 -20 -31 -30 -29 -13 1 4 1
19 0 35 -1 26 -3 27 -56 27 l-55 0 -1 -47 c-1 -100 -1 -279 0 -308 l1 -30 65
0 c58 0 65 2 66 20 0 11 1 58 1 105 0 82 1 85 33 117 33 33 48 37 116 34 34
-2 35 -1 48 49 7 28 11 54 7 57 -16 16 -103 13 -143 -6z"/>
<path d="M3531 1346 c-41 -15 -84 -56 -106 -102 -31 -66 -8 -191 44 -232 78
-62 180 -71 277 -25 l31 15 -21 39 c-18 33 -24 37 -46 31 -48 -13 -128 -6
-150 13 -11 10 -20 22 -20 27 0 4 56 8 125 8 l125 0 0 57 c0 137 -124 218
-259 169z m130 -107 c11 -11 19 -23 17 -25 -8 -7 -92 -11 -117 -4 l-25 6 24
22 c30 28 74 28 101 1z"/>
</g>
</svg>
